<?xml version="1.0" encoding="UTF-8"?>
<!DOCTYPE svg PUBLIC "-//W3C//DTD SVG 1.1//EN" "http://www.w3.org/Graphics/SVG/1.1/DTD/svg11.dtd">
<svg xmlns="http://www.w3.org/2000/svg" version="1.1" width="500px" height="500px" style="shape-rendering:geometricPrecision; text-rendering:geometricPrecision; image-rendering:optimizeQuality; fill-rule:evenodd; clip-rule:evenodd" xmlns:xlink="http://www.w3.org/1999/xlink">
<g><path style="opacity:1" fill="#f8ebdd" d="M -0.5,-0.5 C 166.167,-0.5 332.833,-0.5 499.5,-0.5C 499.5,166.167 499.5,332.833 499.5,499.5C 332.833,499.5 166.167,499.5 -0.5,499.5C -0.5,332.833 -0.5,166.167 -0.5,-0.5 Z"/></g>
<g><path style="opacity:1" fill="#ef4a65" d="M 277.5,226.5 C 276.925,228.411 275.925,230.078 274.5,231.5C 275.583,231.461 276.583,231.127 277.5,230.5C 278.298,230.957 278.631,231.624 278.5,232.5C 271.99,239.173 264.99,245.34 257.5,251C 251.143,258.356 244.476,265.356 237.5,272C 234.901,272.769 232.401,272.602 230,271.5C 227.056,267.285 225.889,262.618 226.5,257.5C 226.5,250.833 226.5,244.167 226.5,237.5C 226.795,231.758 227.295,226.092 228,220.5C 226.269,222.862 225.435,225.529 225.5,228.5C 224.207,238.038 224.207,247.705 225.5,257.5C 225.471,263.21 225.971,268.877 227,274.5C 230.28,276.891 233.78,277.058 237.5,275C 252.751,260.751 267.751,246.084 282.5,231C 281.906,230.536 281.239,230.369 280.5,230.5C 279.833,229.5 279.167,228.5 278.5,227.5C 281.489,225.831 283.822,226.497 285.5,229.5C 292.436,230.967 298.102,234.467 302.5,240C 296.913,240.544 292.413,243.044 289,247.5C 280.244,260.935 274.744,275.601 272.5,291.5C 272.538,295.985 273.371,300.319 275,304.5C 275.294,296.798 275.96,289.131 277,281.5C 277.414,281.043 277.914,280.709 278.5,280.5C 278.833,282.5 279.167,284.5 279.5,286.5C 278.886,302.188 278.219,317.855 277.5,333.5C 257.504,334.741 237.504,334.574 217.5,333C 211.598,331.811 206.098,329.645 201,326.5C 200.614,314.28 199.781,302.114 198.5,290C 198.683,278.2 200.017,266.533 202.5,255C 202.167,253.833 201.833,252.667 201.5,251.5C 195.026,248.846 189.526,244.846 185,239.5C 181.5,233.502 178.833,227.169 177,220.5C 166.514,207.695 162.514,193.029 165,176.5C 165.9,166.8 166.9,157.134 168,147.5C 171.499,139.84 177.332,136.506 185.5,137.5C 183.303,139.518 180.636,140.685 177.5,141C 174.131,143.365 171.964,146.532 171,150.5C 170.166,162.002 169.333,173.502 168.5,185C 167.378,197.97 171.211,209.136 180,218.5C 181.837,226.015 184.837,233.015 189,239.5C 193.251,244.205 198.418,247.205 204.5,248.5C 207.792,236.248 213.459,225.248 221.5,215.5C 220.533,213.37 219.366,211.37 218,209.5C 213.648,206.145 209.648,202.479 206,198.5C 204.648,191.7 203.481,184.866 202.5,178C 203.716,172.025 204.716,166.025 205.5,160C 205.507,156.742 205.007,153.575 204,150.5C 198.145,147.574 192.812,143.907 188,139.5C 185.727,135.551 186.06,131.884 189,128.5C 191.489,125.168 194.656,122.834 198.5,121.5C 199.554,121.68 200.554,122.013 201.5,122.5C 203.316,120.183 205.316,118.016 207.5,116C 205.46,113.815 204.126,111.315 203.5,108.5C 204.675,108.281 205.675,108.614 206.5,109.5C 210.333,114.5 214.167,119.5 218,124.5C 219.364,121.637 221.53,119.637 224.5,118.5C 225.478,118.977 226.311,119.643 227,120.5C 227.681,124.202 227.515,127.869 226.5,131.5C 227.115,133.116 228.115,134.449 229.5,135.5C 233.37,127.626 239.037,121.293 246.5,116.5C 243.047,110.725 239.047,110.225 234.5,115C 233.207,115.49 231.873,115.657 230.5,115.5C 230.663,113.143 230.497,110.81 230,108.5C 223.406,112.36 220.739,110.694 222,103.5C 215.876,104.699 214.376,102.533 217.5,97C 210.74,96.8075 206.24,99.9741 204,106.5C 203.333,107.833 202.667,107.833 202,106.5C 201.245,103.503 202.078,101.003 204.5,99C 211.007,95.8311 217.84,93.6644 225,92.5C 230.673,94.498 235.673,97.498 240,101.5C 240.333,103.5 240.667,105.5 241,107.5C 245.631,110.387 249.464,114.053 252.5,118.5C 249.191,124.46 245.525,130.127 241.5,135.5C 242.827,143.13 243.827,150.797 244.5,158.5C 240.625,159.126 238.791,157.459 239,153.5C 236.867,155.091 235.201,157.091 234,159.5C 233.333,163.833 233.333,168.167 234,172.5C 238.674,188.894 240.34,205.561 239,222.5C 243.364,226.596 248.53,228.262 254.5,227.5C 257.167,227.333 259.833,227.167 262.5,227C 266.1,224.952 269.6,222.786 273,220.5C 275.705,221.57 277.205,223.57 277.5,226.5 Z"/></g>
<g><path style="opacity:1" fill="#f7d8cf" d="M 223.5,95.5 C 225.028,95.5173 225.528,96.184 225,97.5C 223.758,98.8721 222.258,99.8721 220.5,100.5C 219.479,99.9984 219.312,99.3317 220,98.5C 221.145,97.3636 222.312,96.3636 223.5,95.5 Z"/></g>
<g><path style="opacity:1" fill="#f7ded3" d="M 230.5,98.5 C 231.573,99.2506 231.74,100.251 231,101.5C 229.71,103.792 228.043,105.792 226,107.5C 226.384,104.064 227.884,101.064 230.5,98.5 Z"/></g>
<g><path style="opacity:1" fill="#f8d7ce" d="M 236.5,102.5 C 237.571,105.781 236.738,108.781 234,111.5C 233.64,108.206 234.473,105.206 236.5,102.5 Z"/></g>
<g><path style="opacity:1" fill="#f8e6d9" d="M 211.5,137.5 C 208.484,136.657 205.817,135.157 203.5,133C 201.99,131.649 200.99,129.982 200.5,128C 203.677,125.149 206.511,121.982 209,118.5C 211.312,121.646 213.812,124.646 216.5,127.5C 215.664,131.312 213.997,134.645 211.5,137.5 Z"/></g>
<g><path style="opacity:1" fill="#f8dbd1" d="M 245.5,120.5 C 246.376,120.369 247.043,120.702 247.5,121.5C 244.952,124.759 242.286,127.926 239.5,131C 238.365,131.749 237.365,131.583 236.5,130.5C 238.839,126.498 241.839,123.165 245.5,120.5 Z"/></g>
<g><path style="opacity:1" fill="#f8e1d6" d="M 223.5,122.5 C 224.969,126.439 223.969,129.772 220.5,132.5C 219.152,128.514 220.152,125.181 223.5,122.5 Z"/></g>
<g><path style="opacity:1" fill="#f8e8db" d="M 211.5,137.5 C 215.338,136.135 219.338,135.135 223.5,134.5C 225.856,136.69 228.356,138.69 231,140.5C 232.753,139.373 234.587,138.373 236.5,137.5C 237.971,138.381 238.804,139.714 239,141.5C 239.667,144.167 239.667,146.833 239,149.5C 233.309,152.878 230.142,157.878 229.5,164.5C 231.147,176.603 233.314,188.603 236,200.5C 236.667,205.833 236.667,211.167 236,216.5C 235.764,218.119 234.931,219.119 233.5,219.5C 233.586,218.504 233.252,217.671 232.5,217C 226.976,216.296 223.142,213.463 221,208.5C 217.633,204.797 213.966,201.464 210,198.5C 207.629,192.243 206.462,185.743 206.5,179C 206.941,172.407 207.941,165.907 209.5,159.5C 209.519,156.188 208.852,153.021 207.5,150C 209.175,148.498 210.841,146.998 212.5,145.5C 203.833,146.918 196.666,144.252 191,137.5C 190.24,132.395 192.073,128.395 196.5,125.5C 199.19,135.374 205.523,140.541 215.5,141C 214.269,139.595 212.936,138.429 211.5,137.5 Z"/></g>
<g><path style="opacity:1" fill="#f0556c" d="M 320.5,148.5 C 319.325,148.719 318.325,148.386 317.5,147.5C 312.956,137.735 305.622,134.902 295.5,139C 292.202,141.464 289.868,144.63 288.5,148.5C 287.675,149.386 286.675,149.719 285.5,149.5C 285.833,147.5 286.167,145.5 286.5,143.5C 281.486,142.831 276.486,141.997 271.5,141C 267.833,140.333 264.167,140.333 260.5,141C 258.521,144.246 256.188,147.246 253.5,150C 250.937,151.079 248.271,151.579 245.5,151.5C 245.33,150.178 245.663,149.011 246.5,148C 251.714,148.121 254.881,145.621 256,140.5C 256.903,139.299 258.069,138.465 259.5,138C 269.156,136.686 278.489,137.853 287.5,141.5C 298.307,130.66 308.807,130.994 319,142.5C 320.128,144.345 320.628,146.345 320.5,148.5 Z"/></g>
<g><path style="opacity:1" fill="#f0546b" d="M 298.5,142.5 C 300.288,142.215 301.955,142.548 303.5,143.5C 296.358,147.475 290.691,152.975 286.5,160C 289.718,158.181 293.052,156.181 296.5,154C 297.167,153.833 297.833,153.667 298.5,153.5C 299.932,153.733 300.432,154.4 300,155.5C 292.383,160.394 285.216,165.894 278.5,172C 276.06,173.303 273.56,174.47 271,175.5C 270.5,175.167 270,174.833 269.5,174.5C 272.549,171.289 276.049,168.623 280,166.5C 283.549,156.363 289.716,148.363 298.5,142.5 Z"/></g>
<g><path style="opacity:1" fill="#f05a6f" d="M 285.5,149.5 C 284.622,152.287 282.622,153.62 279.5,153.5C 274.943,153.172 273.943,151.339 276.5,148C 279.823,147.068 282.823,147.568 285.5,149.5 Z"/></g>
<g><path style="opacity:1" fill="#ef516a" d="M 320.5,148.5 C 325.984,148.438 327.817,151.105 326,156.5C 312.965,167.027 298.299,173.361 282,175.5C 281.517,174.552 281.351,173.552 281.5,172.5C 282.5,172.5 283.5,172.5 284.5,172.5C 288.397,171.945 292.063,170.945 295.5,169.5C 305.253,166.04 314.42,161.373 323,155.5C 323.781,154.056 323.614,152.723 322.5,151.5C 314.077,158.709 304.744,164.376 294.5,168.5C 291.321,169.793 287.988,170.46 284.5,170.5C 284.369,169.624 284.702,168.957 285.5,168.5C 298.926,164.629 310.593,157.962 320.5,148.5 Z"/></g>
<g><path style="opacity:1" fill="#f8dad0" d="M 295.5,169.5 C 294.833,169.5 294.5,169.167 294.5,168.5C 304.744,164.376 314.077,158.709 322.5,151.5C 323.614,152.723 323.781,154.056 323,155.5C 314.42,161.373 305.253,166.04 295.5,169.5 Z"/></g>
<g><path style="opacity:1" fill="#f0556c" d="M 325.5,158.5 C 328.091,159.254 329.924,160.921 331,163.5C 334.834,170.514 335.501,177.847 333,185.5C 329.201,194.232 326.201,203.232 324,212.5C 323.333,215.833 323.333,219.167 324,222.5C 325.842,225.754 326.675,229.254 326.5,233C 325.494,240.688 323.661,248.188 321,255.5C 320.503,258.146 320.336,260.813 320.5,263.5C 319.5,263.5 318.5,263.5 317.5,263.5C 317.335,260.15 317.502,256.817 318,253.5C 320.348,246.626 322.181,239.626 323.5,232.5C 323.257,229.344 322.424,226.344 321,223.5C 320.333,219.167 320.333,214.833 321,210.5C 323.714,201.405 326.714,192.405 330,183.5C 330.667,178.833 330.667,174.167 330,169.5C 327.928,166.029 326.428,162.362 325.5,158.5 Z"/></g>
<g><path style="opacity:1" fill="#f6b0b0" d="M 294.5,168.5 C 294.5,169.167 294.833,169.5 295.5,169.5C 292.063,170.945 288.397,171.945 284.5,172.5C 284.5,171.833 284.5,171.167 284.5,170.5C 287.988,170.46 291.321,169.793 294.5,168.5 Z"/></g>
<g><path style="opacity:1" fill="#f0546b" d="M 276.5,176.5 C 278.686,176.511 279.519,177.511 279,179.5C 273.53,183.964 269.197,189.297 266,195.5C 266.494,201.816 266.827,208.15 267,214.5C 266.548,218.138 264.714,220.472 261.5,221.5C 262.591,218.056 263.591,214.556 264.5,211C 261.332,203.196 261.832,195.696 266,188.5C 269.805,184.575 273.305,180.575 276.5,176.5 Z"/></g>
<g><path style="opacity:1" fill="#ef5169" d="M 274.5,196.5 C 275.003,205.061 277.836,213.061 283,220.5C 283.781,221.944 283.614,223.277 282.5,224.5C 274.55,216.704 271.883,207.37 274.5,196.5 Z"/></g>
<g><path style="opacity:1" fill="#ef5169" d="M 285.5,202.5 C 287.017,202.511 288.184,203.177 289,204.5C 289.333,209.5 289.667,214.5 290,219.5C 291.728,223.643 294.394,226.976 298,229.5C 298.432,230.6 297.932,231.267 296.5,231.5C 292.888,229.723 290.055,227.056 288,223.5C 286.598,216.582 285.765,209.582 285.5,202.5 Z"/></g>
<g><path style="opacity:1" fill="#f0526a" d="M 296.5,213.5 C 297.496,213.414 298.329,213.748 299,214.5C 300.944,218.11 303.277,221.443 306,224.5C 306.199,231.268 307.032,237.934 308.5,244.5C 307.178,244.67 306.011,244.337 305,243.5C 303.814,237.915 303.148,232.249 303,226.5C 301.579,223.991 299.912,221.657 298,219.5C 296.872,217.655 296.372,215.655 296.5,213.5 Z"/></g>
<g><path style="opacity:1" fill="#f05b70" d="M 311.5,219.5 C 312.496,219.414 313.329,219.748 314,220.5C 315.669,224.008 316.836,227.675 317.5,231.5C 316.095,239.772 315.095,248.105 314.5,256.5C 313.029,255.619 312.196,254.286 312,252.5C 311.34,245.42 311.84,238.42 313.5,231.5C 313.038,227.454 312.372,223.454 311.5,219.5 Z"/></g>
<g><path style="opacity:1" fill="#f8e7da" d="M 233.5,219.5 C 236.147,226.181 241.147,230.015 248.5,231C 257.486,232.392 265.486,230.226 272.5,224.5C 273.5,224.833 274.167,225.5 274.5,226.5C 266.86,235.145 257.527,237.645 246.5,234C 241.619,232.056 236.953,229.89 232.5,227.5C 232.921,229.91 234.254,231.743 236.5,233C 249.553,240.648 262.22,240.148 274.5,231.5C 261.064,243.102 248.397,255.602 236.5,269C 235.167,269.667 233.833,269.667 232.5,269C 231.044,266.734 230.21,264.234 230,261.5C 229.333,251.167 229.333,240.833 230,230.5C 230.416,226.471 231.583,222.804 233.5,219.5 Z"/></g>
<g><path style="opacity:1" fill="#f8e3d7" d="M 226.5,237.5 C 225.523,234.713 225.19,231.713 225.5,228.5C 225.435,225.529 226.269,222.862 228,220.5C 227.295,226.092 226.795,231.758 226.5,237.5 Z"/></g>
<g><path style="opacity:1" fill="#f5a6a9" d="M 277.5,226.5 C 278.167,226.5 278.5,226.833 278.5,227.5C 279.167,228.5 279.833,229.5 280.5,230.5C 279.833,231.167 279.167,231.833 278.5,232.5C 278.631,231.624 278.298,230.957 277.5,230.5C 276.583,231.127 275.583,231.461 274.5,231.5C 275.925,230.078 276.925,228.411 277.5,226.5 Z"/></g>
<g><path style="opacity:1" fill="#f0596e" d="M 299.5,242.5 C 300.496,242.414 301.329,242.748 302,243.5C 307.074,250.382 310.408,258.049 312,266.5C 313.397,281.02 314.897,295.52 316.5,310C 316.612,311.662 315.946,312.829 314.5,313.5C 312.466,309.761 311.299,305.761 311,301.5C 310.875,289.087 309.875,276.753 308,264.5C 305.938,256.736 303.105,249.403 299.5,242.5 Z"/></g>
<g><path style="opacity:1" fill="#f5a8ab" d="M 225.5,228.5 C 225.19,231.713 225.523,234.713 226.5,237.5C 226.5,244.167 226.5,250.833 226.5,257.5C 226.167,257.5 225.833,257.5 225.5,257.5C 224.207,247.705 224.207,238.038 225.5,228.5 Z"/></g>
<g><path style="opacity:1" fill="#f8dbd1" d="M 280.5,230.5 C 281.239,230.369 281.906,230.536 282.5,231C 267.751,246.084 252.751,260.751 237.5,275C 233.78,277.058 230.28,276.891 227,274.5C 225.971,268.877 225.471,263.21 225.5,257.5C 225.833,257.5 226.167,257.5 226.5,257.5C 225.889,262.618 227.056,267.285 230,271.5C 232.401,272.602 234.901,272.769 237.5,272C 244.476,265.356 251.143,258.356 257.5,251C 264.99,245.34 271.99,239.173 278.5,232.5C 279.167,231.833 279.833,231.167 280.5,230.5 Z"/></g>
<g><path style="opacity:1" fill="#ef4b65" d="M 166.5,333.5 C 169.475,333.307 171.975,334.307 174,336.5C 175.204,340.716 175.87,345.049 176,349.5C 176.764,345.645 178.264,342.145 180.5,339C 184.968,338.304 186.802,340.137 186,344.5C 183.162,351.684 180.329,358.85 177.5,366C 175.231,366.758 173.064,366.591 171,365.5C 169.595,359.937 168.595,354.27 168,348.5C 166.36,352.392 165.027,356.392 164,360.5C 161.408,361.982 159.075,361.648 157,359.5C 158.893,351.812 161.226,344.145 164,336.5C 165.045,335.627 165.878,334.627 166.5,333.5 Z"/></g>
<g><path style="opacity:1" fill="#ef4a65" d="M 328.5,333.5 C 330.467,333.261 332.301,333.594 334,334.5C 334.273,340.54 333.773,346.54 332.5,352.5C 332.833,353.833 333.167,355.167 333.5,356.5C 335.957,354.775 338.623,354.275 341.5,355C 344.475,358.716 343.475,361.049 338.5,362C 334.03,364.075 329.364,365.242 324.5,365.5C 324.225,358.572 324.892,351.739 326.5,345C 326.167,344.167 325.833,343.333 325.5,342.5C 321.711,345.629 318.711,345.129 316.5,341C 316.759,339.739 317.426,338.739 318.5,338C 322.061,336.768 325.394,335.268 328.5,333.5 Z"/></g>
<g><path style="opacity:1" fill="#ef4d66" d="M 303.5,341.5 C 305.857,341.337 308.19,341.503 310.5,342C 311.935,344.267 311.602,346.267 309.5,348C 305.102,347.408 303.102,349.241 303.5,353.5C 305.547,353.489 307.547,353.156 309.5,352.5C 313.722,353.661 314.388,355.828 311.5,359C 309.975,360.009 308.308,360.509 306.5,360.5C 306.5,361.833 306.5,363.167 306.5,364.5C 309.425,363.361 312.425,362.861 315.5,363C 317.602,364.733 317.935,366.733 316.5,369C 312.106,370.015 307.772,371.182 303.5,372.5C 301.626,372.61 300.126,371.944 299,370.5C 296.786,363.095 294.952,355.595 293.5,348C 293.585,346.893 293.919,345.893 294.5,345C 297.571,343.704 300.571,342.538 303.5,341.5 Z"/></g>
<g><path style="opacity:1" fill="#ef4b65" d="M 196.5,343.5 C 202.526,342.676 207.693,344.342 212,348.5C 212.769,351.099 212.602,353.599 211.5,356C 209.833,356.667 208.167,356.667 206.5,356C 203.839,348.985 201.006,348.818 198,355.5C 197.333,358.833 197.333,362.167 198,365.5C 199.356,366.38 200.856,366.714 202.5,366.5C 201.821,364.332 200.821,362.332 199.5,360.5C 199.712,358.112 201.045,357.112 203.5,357.5C 206.387,357.627 208.887,358.627 211,360.5C 210.889,373.774 204.722,377.274 192.5,371C 190.951,369.786 189.785,368.286 189,366.5C 186.833,357.169 189.333,349.502 196.5,343.5 Z"/></g>
<g><path style="opacity:1" fill="#ef4a65" d="M 271.5,347.5 C 280.302,345.149 286.135,348.149 289,356.5C 290.245,362.706 289.412,368.539 286.5,374C 277.314,380.039 270.48,378.205 266,368.5C 262.501,359.842 264.334,352.842 271.5,347.5 Z"/></g>
<g><path style="opacity:1" fill="#ef4c66" d="M 221.5,347.5 C 227.197,347.622 232.697,348.622 238,350.5C 238.72,352.112 238.554,353.612 237.5,355C 234.183,355.498 230.85,355.665 227.5,355.5C 227.5,356.833 227.5,358.167 227.5,359.5C 231.367,358.775 234.034,360.108 235.5,363.5C 235.392,364.442 235.059,365.275 234.5,366C 231.854,366.497 229.187,366.664 226.5,366.5C 226.5,367.833 226.5,369.167 226.5,370.5C 229.649,370.211 232.649,370.711 235.5,372C 236.833,373.667 236.833,375.333 235.5,377C 230.5,377.667 225.5,377.667 220.5,377C 219.584,376.626 218.75,376.126 218,375.5C 217.857,367.498 218.19,359.498 219,351.5C 219.662,350.016 220.496,348.683 221.5,347.5 Z"/></g>
<g><path style="opacity:1" fill="#ef4a65" d="M 250.5,349.5 C 253.365,349.055 255.865,349.722 258,351.5C 258.863,359.564 258.53,367.564 257,375.5C 253.604,379.203 249.437,380.369 244.5,379C 241.562,377.08 240.895,374.58 242.5,371.5C 244.686,370.779 246.853,370.113 249,369.5C 249.205,362.754 249.705,356.087 250.5,349.5 Z"/></g>
<g><path style="opacity:1" fill="#f8e3d7" d="M 274.5,354.5 C 277.238,353.965 279.072,354.965 280,357.5C 280.499,361.486 280.666,365.486 280.5,369.5C 278.234,369.859 276.401,369.192 275,367.5C 273.41,363.157 273.243,358.824 274.5,354.5 Z"/></g>
</svg>
